<svg width="286" height="132" viewBox="0 0 286 132" fill="none" xmlns="http://www.w3.org/2000/svg">
<g clip-path="url(#clip0_974_480)">
<path d="M55.7785 10.0964L63.2706 15.0743L67.1345 11.5984L73.4994 52.6651L55.7785 10.0964ZM38.9321 8.34316L46.5058 14.3487L51.7555 9.70475L73.1427 52.8286L69.8145 50.9468L38.9321 8.34316ZM101.633 52.5111C119.479 52.0981 112.729 73.6098 92.9311 80.7435C100.537 92.3398 102.378 102.97 90.0205 110.541C75.3717 114.743 69.1918 112.269 46.9817 112.539L74.5022 54.1222L101.633 52.5111Z" fill="#63C7B2"/>
<path d="M51.7555 9.70468L55.7786 10.0963L73.4994 52.665L73.1427 52.8285L51.7555 9.70468ZM69.8145 50.9467L42.2941 109.363L38.0303 104.076L11.1814 66.6522L38.9322 8.34309L69.8145 50.9467Z" fill="#483E80"/>
</g>
<g filter="url(#filter0_dd_974_480)">
<path d="M103.726 106.317C103.346 106.317 103.066 106.237 102.886 106.077C102.726 105.897 102.646 105.617 102.646 105.237V101.667C102.646 101.287 102.726 101.017 102.886 100.857C103.066 100.677 103.346 100.587 103.726 100.587H106.696V90.5074H103.726C103.346 90.5074 103.066 90.4274 102.886 90.2674C102.726 90.0874 102.646 89.8074 102.646 89.4274V85.7974C102.646 85.4174 102.726 85.1474 102.886 84.9874C103.066 84.8074 103.346 84.7174 103.726 84.7174H116.506C116.886 84.7174 117.156 84.8074 117.316 84.9874C117.496 85.1474 117.586 85.4174 117.586 85.7974V89.4274C117.586 89.8074 117.496 90.0874 117.316 90.2674C117.156 90.4274 116.886 90.5074 116.506 90.5074H113.596V100.587H116.506C116.886 100.587 117.156 100.677 117.316 100.857C117.496 101.017 117.586 101.287 117.586 101.667V105.237C117.586 105.617 117.496 105.897 117.316 106.077C117.156 106.237 116.886 106.317 116.506 106.317H103.726ZM133.29 106.317H121.77C121.39 106.317 121.11 106.237 120.93 106.077C120.77 105.897 120.69 105.617 120.69 105.237V85.7974C120.69 85.4174 120.77 85.1474 120.93 84.9874C121.11 84.8074 121.39 84.7174 121.77 84.7174H131.34C133.3 84.7174 134.75 85.0974 135.69 85.8574C136.63 86.5974 137.1 87.7474 137.1 89.3074V90.7474C137.1 91.5874 136.95 92.2774 136.65 92.8174C136.37 93.3374 135.93 93.7274 135.33 93.9874C136.61 94.1074 137.56 94.5474 138.18 95.3074C138.8 96.0674 139.11 97.1774 139.11 98.6374V101.397C139.11 103.077 138.63 104.317 137.67 105.117C136.73 105.917 135.27 106.317 133.29 106.317ZM127.44 89.8174V93.0574H129.99C130.37 93.0574 130.65 92.9574 130.83 92.7574C131.03 92.5574 131.13 92.2574 131.13 91.8574V91.0174C131.13 90.6174 131.03 90.3174 130.83 90.1174C130.65 89.9174 130.37 89.8174 129.99 89.8174H127.44ZM127.44 97.6774V101.217H131.34C131.72 101.217 132 101.117 132.18 100.917C132.38 100.717 132.48 100.417 132.48 100.017V98.8474C132.48 98.4474 132.38 98.1574 132.18 97.9774C132 97.7774 131.72 97.6774 131.34 97.6774H127.44ZM158.178 106.317H142.908C142.528 106.317 142.248 106.237 142.068 106.077C141.908 105.897 141.828 105.617 141.828 105.237V85.7974C141.828 85.4174 141.908 85.1474 142.068 84.9874C142.248 84.8074 142.528 84.7174 142.908 84.7174H147.558C147.938 84.7174 148.208 84.8074 148.368 84.9874C148.548 85.1474 148.638 85.4174 148.638 85.7974V100.647H152.748V95.7874C152.748 95.4074 152.828 95.1374 152.988 94.9774C153.168 94.7974 153.448 94.7074 153.828 94.7074H158.178C158.558 94.7074 158.828 94.7974 158.988 94.9774C159.168 95.1374 159.258 95.4074 159.258 95.7874V105.237C159.258 105.617 159.168 105.897 158.988 106.077C158.828 106.237 158.558 106.317 158.178 106.317ZM162.688 106.317C162.308 106.317 162.028 106.237 161.848 106.077C161.688 105.897 161.608 105.617 161.608 105.237V101.667C161.608 101.287 161.688 101.017 161.848 100.857C162.028 100.677 162.308 100.587 162.688 100.587H165.658V90.5074H162.688C162.308 90.5074 162.028 90.4274 161.848 90.2674C161.688 90.0874 161.608 89.8074 161.608 89.4274V85.7974C161.608 85.4174 161.688 85.1474 161.848 84.9874C162.028 84.8074 162.308 84.7174 162.688 84.7174H175.468C175.848 84.7174 176.118 84.8074 176.278 84.9874C176.458 85.1474 176.548 85.4174 176.548 85.7974V89.4274C176.548 89.8074 176.458 90.0874 176.278 90.2674C176.118 90.4274 175.848 90.5074 175.468 90.5074H172.558V100.587H175.468C175.848 100.587 176.118 100.677 176.278 100.857C176.458 101.017 176.548 101.287 176.548 101.667V105.237C176.548 105.617 176.458 105.897 176.278 106.077C176.118 106.237 175.848 106.317 175.468 106.317H162.688ZM197.952 100.647C197.952 101.567 197.812 102.407 197.532 103.167C197.272 103.907 196.792 104.547 196.092 105.087C195.412 105.607 194.462 106.017 193.242 106.317C192.042 106.617 190.512 106.767 188.652 106.767C186.792 106.767 185.252 106.617 184.032 106.317C182.812 106.017 181.852 105.607 181.152 105.087C180.472 104.547 179.992 103.907 179.712 103.167C179.452 102.407 179.322 101.567 179.322 100.647V90.4174C179.322 89.4974 179.452 88.6674 179.712 87.9274C179.992 87.1674 180.472 86.5174 181.152 85.9774C181.852 85.4374 182.812 85.0174 184.032 84.7174C185.252 84.4174 186.792 84.2674 188.652 84.2674C190.512 84.2674 192.042 84.4174 193.242 84.7174C194.462 85.0174 195.412 85.4374 196.092 85.9774C196.792 86.5174 197.272 87.1674 197.532 87.9274C197.812 88.6674 197.952 89.4974 197.952 90.4174V100.647ZM186.132 99.5674C186.132 99.9674 186.282 100.307 186.582 100.587C186.882 100.847 187.572 100.977 188.652 100.977C189.732 100.977 190.422 100.847 190.722 100.587C191.022 100.307 191.172 99.9674 191.172 99.5674V91.4974C191.172 91.1174 191.022 90.7974 190.722 90.5374C190.422 90.2574 189.732 90.1174 188.652 90.1174C187.572 90.1174 186.882 90.2574 186.582 90.5374C186.282 90.7974 186.132 91.1174 186.132 91.4974V99.5674ZM211.224 106.317H206.364C205.984 106.317 205.704 106.237 205.524 106.077C205.364 105.897 205.284 105.617 205.284 105.237V90.5074H200.874C200.494 90.5074 200.214 90.4274 200.034 90.2674C199.874 90.0874 199.794 89.8074 199.794 89.4274V85.7974C199.794 85.4174 199.874 85.1474 200.034 84.9874C200.214 84.8074 200.494 84.7174 200.874 84.7174H216.714C217.094 84.7174 217.364 84.8074 217.524 84.9874C217.704 85.1474 217.794 85.4174 217.794 85.7974V89.4274C217.794 89.8074 217.704 90.0874 217.524 90.2674C217.364 90.4274 217.094 90.5074 216.714 90.5074H212.304V105.237C212.304 105.617 212.214 105.897 212.034 106.077C211.874 106.237 211.604 106.317 211.224 106.317ZM235.112 106.317H221.192C220.812 106.317 220.532 106.237 220.352 106.077C220.192 105.897 220.112 105.617 220.112 105.237V85.7974C220.112 85.4174 220.192 85.1474 220.352 84.9874C220.532 84.8074 220.812 84.7174 221.192 84.7174H235.112C235.492 84.7174 235.762 84.8074 235.922 84.9874C236.102 85.1474 236.192 85.4174 236.192 85.7974V89.3074C236.192 89.6874 236.102 89.9674 235.922 90.1474C235.762 90.3074 235.492 90.3874 235.112 90.3874H226.832V92.6974H232.682C233.062 92.6974 233.332 92.7874 233.492 92.9674C233.672 93.1274 233.762 93.3974 233.762 93.7774V96.9874C233.762 97.3674 233.672 97.6474 233.492 97.8274C233.332 97.9874 233.062 98.0674 232.682 98.0674H226.832V100.647H235.112C235.492 100.647 235.762 100.737 235.922 100.917C236.102 101.077 236.192 101.347 236.192 101.727V105.237C236.192 105.617 236.102 105.897 235.922 106.077C235.762 106.237 235.492 106.317 235.112 106.317ZM244.871 106.317H240.221C239.841 106.317 239.561 106.237 239.381 106.077C239.221 105.897 239.141 105.617 239.141 105.237V85.7974C239.141 85.4174 239.221 85.1474 239.381 84.9874C239.561 84.8074 239.841 84.7174 240.221 84.7174H244.871C245.251 84.7174 245.521 84.8074 245.681 84.9874C245.861 85.1474 245.951 85.4174 245.951 85.7974V92.6974H247.151L250.241 85.7074C250.381 85.3474 250.571 85.0974 250.811 84.9574C251.051 84.7974 251.361 84.7174 251.741 84.7174H256.361C256.701 84.7174 256.931 84.8074 257.051 84.9874C257.171 85.1474 257.161 85.3874 257.021 85.7074L253.961 92.6974C255.081 92.7574 255.971 93.1574 256.631 93.8974C257.311 94.6174 257.651 95.5774 257.651 96.7774V105.237C257.651 105.617 257.561 105.897 257.381 106.077C257.221 106.237 256.951 106.317 256.571 106.317H251.951C251.571 106.317 251.291 106.237 251.111 106.077C250.951 105.897 250.871 105.617 250.871 105.237V99.3874C250.871 99.0674 250.791 98.8174 250.631 98.6374C250.471 98.4574 250.231 98.3674 249.911 98.3674H245.951V105.237C245.951 105.617 245.861 105.897 245.681 106.077C245.521 106.237 245.251 106.317 244.871 106.317ZM279.223 100.647C279.223 101.567 279.083 102.407 278.803 103.167C278.543 103.907 278.063 104.547 277.363 105.087C276.683 105.607 275.733 106.017 274.513 106.317C273.313 106.617 271.783 106.767 269.923 106.767C268.063 106.767 266.523 106.617 265.303 106.317C264.083 106.017 263.123 105.607 262.423 105.087C261.743 104.547 261.263 103.907 260.983 103.167C260.723 102.407 260.593 101.567 260.593 100.647V90.4174C260.593 89.4974 260.723 88.6674 260.983 87.9274C261.263 87.1674 261.743 86.5174 262.423 85.9774C263.123 85.4374 264.083 85.0174 265.303 84.7174C266.523 84.4174 268.063 84.2674 269.923 84.2674C271.783 84.2674 273.313 84.4174 274.513 84.7174C275.733 85.0174 276.683 85.4374 277.363 85.9774C278.063 86.5174 278.543 87.1674 278.803 87.9274C279.083 88.6674 279.223 89.4974 279.223 90.4174V100.647ZM267.403 99.5674C267.403 99.9674 267.553 100.307 267.853 100.587C268.153 100.847 268.843 100.977 269.923 100.977C271.003 100.977 271.693 100.847 271.993 100.587C272.293 100.307 272.443 99.9674 272.443 99.5674V91.4974C272.443 91.1174 272.293 90.7974 271.993 90.5374C271.693 90.2574 271.003 90.1174 269.923 90.1174C268.843 90.1174 268.153 90.2574 267.853 90.5374C267.553 90.7974 267.403 91.1174 267.403 91.4974V99.5674Z" fill="#63C7B2"/>
</g>
<defs>
<filter id="filter0_dd_974_480" x="96.6458" y="78.2673" width="188.578" height="34.5" filterUnits="userSpaceOnUse" color-interpolation-filters="sRGB">
<feFlood flood-opacity="0" result="BackgroundImageFix"/>
<feColorMatrix in="SourceAlpha" type="matrix" values="0 0 0 0 0 0 0 0 0 0 0 0 0 0 0 0 0 0 127 0" result="hardAlpha"/>
<feOffset dx="2" dy="2"/>
<feGaussianBlur stdDeviation="2"/>
<feComposite in2="hardAlpha" operator="out"/>
<feColorMatrix type="matrix" values="0 0 0 0 0 0 0 0 0 0 0 0 0 0 0 0 0 0 0.25 0"/>
<feBlend mode="normal" in2="BackgroundImageFix" result="effect1_dropShadow_974_480"/>
<feColorMatrix in="SourceAlpha" type="matrix" values="0 0 0 0 0 0 0 0 0 0 0 0 0 0 0 0 0 0 127 0" result="hardAlpha"/>
<feOffset dx="-2" dy="-2"/>
<feGaussianBlur stdDeviation="2"/>
<feComposite in2="hardAlpha" operator="out"/>
<feColorMatrix type="matrix" values="0 0 0 0 1 0 0 0 0 1 0 0 0 0 1 0 0 0 1 0"/>
<feBlend mode="normal" in2="effect1_dropShadow_974_480" result="effect2_dropShadow_974_480"/>
<feBlend mode="normal" in="SourceGraphic" in2="effect2_dropShadow_974_480" result="shape"/>
</filter>
<clipPath id="clip0_974_480">
<rect width="95.5456" height="100" fill="white" transform="translate(42.2618) rotate(25)"/>
</clipPath>
</defs>
</svg>
